name precision_landing11_filtered_grf.mot
datacolumns 37
datarows 5
range 1.967500 1.969500
endheader
time	1_ground_force_vx	1_ground_force_vy	1_ground_force_vz	1_ground_force_px	1_ground_force_py	1_ground_force_pz	1_ground_torque_x	1_ground_torque_y	1_ground_torque_z	2_ground_force_vx	2_ground_force_vy	2_ground_force_vz	2_ground_force_px	2_ground_force_py	2_ground_force_pz	2_ground_torque_x	2_ground_torque_y	2_ground_torque_z	3_ground_force_vx	3_ground_force_vy	3_ground_force_vz	3_ground_force_px	3_ground_force_py	3_ground_force_pz	3_ground_torque_x	3_ground_torque_y	3_ground_torque_z	4_ground_force_vx	4_ground_force_vy	4_ground_force_vz	4_ground_force_px	4_ground_force_py	4_ground_force_pz	4_ground_torque_x	4_ground_torque_y	4_ground_torque_z
            1.967500	          -23.393012	          349.347953	          -21.563939	            0.093722	            0.000000	            0.182921	           -0.699345	           10.443927	           -0.644664	           36.156575	          235.896587	          -13.046106	           -0.156851	            0.000000	            0.186739	            0.802620	            5.236541	           -0.289603	            1.917380	           -0.781149	           -0.166918	            0.381504	            1.276225	            1.867346	            0.013490	           -0.009301	           -0.014198	           -2.294494	           -0.051833	            0.046481	           -0.350785	            1.268732	            1.860351	            0.006970	           -0.004594	           -0.013834
            1.968000	          -23.424091	          350.349655	          -21.436959	            0.093671	            0.000000	            0.182931	           -0.699547	           10.462991	           -0.640202	           36.261904	          236.567029	          -12.877241	           -0.156864	            0.000000	            0.186740	            0.809774	            5.282841	           -0.287565	            1.916143	           -0.769225	           -0.160945	            0.381506	            1.276223	            1.867341	            0.013760	           -0.009495	           -0.013870	           -2.301123	           -0.056201	            0.051046	           -0.350785	            1.268733	            1.860356	            0.006854	           -0.004517	           -0.013790
            1.968500	          -23.449863	          351.329939	          -21.306153	            0.093621	            0.000000	            0.182940	           -0.699646	           10.482214	           -0.635686	           36.362808	          237.228562	          -12.708168	           -0.156877	            0.000000	            0.186737	            0.816746	            5.328396	           -0.285438	            1.914132	           -0.756681	           -0.154972	            0.381507	            1.276221	            1.867336	            0.014045	           -0.009676	           -0.013515	           -2.306761	           -0.061050	            0.055488	           -0.350785	            1.268735	            1.860362	            0.006739	           -0.004445	           -0.013733
            1.969000	          -23.470244	          352.288226	          -21.171877	            0.093570	            0.000000	            0.182948	           -0.699640	           10.501594	           -0.631127	           36.459273	          237.881063	          -12.539214	           -0.156890	            0.000000	            0.186731	            0.823525	            5.373148	           -0.283230	            1.911220	           -0.743625	           -0.149071	            0.381509	            1.276220	            1.867332	            0.014342	           -0.009841	           -0.013135	           -2.311304	           -0.066360	            0.059705	           -0.350785	            1.268736	            1.860367	            0.006626	           -0.004379	           -0.013663
            1.969500	          -23.485163	          353.223984	          -21.034486	            0.093519	            0.000000	            0.182955	           -0.699529	           10.521125	           -0.626533	           36.551295	          238.524437	          -12.370704	           -0.156903	            0.000000	            0.186722	            0.830104	            5.417045	           -0.280947	            1.907276	           -0.730171	           -0.143307	            0.381510	            1.276218	            1.867327	            0.014649	           -0.009989	           -0.012735	           -2.314650	           -0.072113	            0.063604	           -0.350786	            1.268737	            1.860372	            0.006516	           -0.004318	           -0.013579
